<svg xmlns="http://www.w3.org/2000/svg" xmlns:xlink="http://www.w3.org/1999/xlink" width="500" zoomAndPan="magnify" viewBox="0 0 375 374.999991" height="500" preserveAspectRatio="xMidYMid meet" version="1.0"><defs><clipPath id="b65976874f"><path d="M 70.410156 49.648438 L 323.464844 49.648438 L 323.464844 302.699219 L 70.410156 302.699219 Z M 70.410156 49.648438 " clip-rule="nonzero"/></clipPath><clipPath id="d0ac1876e2"><path d="M 196.9375 49.648438 C 127.058594 49.648438 70.410156 106.292969 70.410156 176.171875 C 70.410156 246.050781 127.058594 302.699219 196.9375 302.699219 C 266.816406 302.699219 323.464844 246.050781 323.464844 176.171875 C 323.464844 106.292969 266.816406 49.648438 196.9375 49.648438 Z M 196.9375 49.648438 " clip-rule="nonzero"/></clipPath><clipPath id="83d9ade20a"><path d="M 60.972656 67.792969 L 313.722656 67.792969 L 313.722656 320.542969 L 60.972656 320.542969 Z M 60.972656 67.792969 " clip-rule="nonzero"/></clipPath><clipPath id="e5ba09c167"><path d="M 187.496094 67.792969 C 117.617188 67.792969 60.972656 124.4375 60.972656 194.3125 C 60.972656 264.1875 117.617188 320.835938 187.496094 320.835938 C 257.371094 320.835938 314.015625 264.1875 314.015625 194.3125 C 314.015625 124.4375 257.371094 67.792969 187.496094 67.792969 Z M 187.496094 67.792969 " clip-rule="nonzero"/></clipPath><clipPath id="fe1a775f22"><path d="M 0 37.5 L 221 37.5 L 221 217 L 0 217 Z M 0 37.5 " clip-rule="nonzero"/></clipPath><clipPath id="4be0118403"><path d="M 0 184 L 221 184 L 221 351 L 0 351 Z M 0 184 " clip-rule="nonzero"/></clipPath></defs><g clip-path="url(#b65976874f)"><g clip-path="url(#d0ac1876e2)"><path fill="#ff914d" d="M 70.410156 49.648438 L 323.464844 49.648438 L 323.464844 302.699219 L 70.410156 302.699219 Z M 70.410156 49.648438 " fill-opacity="1" fill-rule="nonzero"/></g></g><g clip-path="url(#83d9ade20a)"><g clip-path="url(#e5ba09c167)"><path stroke-linecap="butt" transform="matrix(0.75, 0, 0, 0.75, 60.973133, 67.79131)" fill="none" stroke-linejoin="miter" d="M 168.697292 0.00221174 C 75.525411 0.00221174 -0.000636062 75.528258 -0.000636062 168.694931 C -0.000636062 261.861604 75.525411 337.392859 168.697292 337.392859 C 261.863964 337.392859 337.390011 261.861604 337.390011 168.694931 C 337.390011 75.528258 261.863964 0.00221174 168.697292 0.00221174 Z M 168.697292 0.00221174 " stroke="#000000" stroke-width="14" stroke-opacity="1" stroke-miterlimit="4"/></g></g><g clip-path="url(#fe1a775f22)"><path fill="#000000" d="M 220.84375 137.386719 C 220.527344 138.148438 214.726562 136.78125 214.03125 136.664062 C 209.835938 135.941406 205.824219 135.011719 202.023438 133.019531 C 197.894531 130.855469 194.105469 128.09375 189.875 126.105469 C 181.34375 122.136719 172.273438 119.039062 162.890625 118.304688 C 153.515625 117.582031 143.746094 119.355469 135.855469 124.472656 C 133.6875 125.855469 131.648438 127.519531 129.242188 128.359375 C 123.132812 130.527344 116.640625 127.210938 110.414062 125.492188 C 99.699219 122.5625 87.742188 124.640625 78.664062 131.011719 C 76 132.882812 72.488281 130.261719 73.546875 127.191406 C 75.703125 120.917969 77.289062 114.457031 78.25 107.894531 C 78.671875 105.015625 79.394531 102.195312 80.476562 99.484375 C 83.019531 93.113281 85.710938 88.113281 89.710938 81.367188 C 92.789062 77.644531 95.871094 73.925781 98.9375 70.203125 C 100.613281 68.195312 102.542969 66.039062 105.144531 65.820312 C 106.699219 65.679688 108.214844 66.292969 109.660156 66.917969 C 112.816406 68.285156 115.945312 69.75 119.003906 71.3125 C 119.796875 71.71875 120.660156 72.210938 120.945312 73.054688 C 121.113281 73.558594 121.042969 74.121094 121.210938 74.625 C 121.421875 75.308594 122.003906 75.792969 122.589844 76.210938 C 124.757812 77.804688 127.203125 79 129.777344 79.761719 C 130.539062 81.433594 132.351562 82.484375 134.261719 81.671875 C 135.824219 84.019531 138.882812 84.324219 141.257812 84.421875 C 140.65625 85.699219 141.398438 86.839844 142.425781 87.285156 C 143.746094 87.855469 145.257812 87.472656 146.644531 87.007812 C 148.019531 86.5625 149.484375 86.054688 150.882812 86.433594 C 151.632812 86.640625 152.308594 87.085938 153.070312 87.164062 C 154.394531 87.285156 155.523438 86.292969 156.476562 85.382812 C 159.515625 82.453125 162.554688 79.535156 165.59375 76.605469 C 166.484375 75.753906 167.40625 74.816406 167.621094 73.609375 C 167.742188 73.035156 167.671875 72.449219 167.535156 71.875 C 167.058594 69.917969 166.207031 68.074219 165.148438 66.363281 L 157.394531 53.648438 C 155.605469 50.710938 153.722656 47.660156 150.84375 45.742188 C 148.039062 43.882812 144.585938 43.277344 141.257812 42.734375 L 116.035156 38.597656 C 113.441406 38.160156 110.828125 37.824219 108.214844 37.667969 C 105.679688 37.519531 103.085938 37.578125 100.679688 38.371094 C 96.742188 39.664062 93.722656 42.773438 90.859375 45.78125 C 85.40625 51.480469 79.960938 57.199219 74.882812 63.277344 C 55.191406 81.703125 35.195312 100.464844 21.730469 123.835938 C 17.613281 130.972656 14.128906 138.492188 9.375 145.230469 C 6.761719 148.941406 3.722656 152.464844 1.980469 156.652344 C 0.289062 160.6875 0.0117188 165.667969 2.703125 169.992188 C 2.902344 170.316406 3.167969 170.605469 3.464844 170.84375 C 7.414062 174.007812 11.929688 176.375 16.503906 178.519531 C 27.808594 183.863281 39.640625 188.089844 51.757812 191.128906 C 57.140625 192.484375 62.597656 193.601562 68.0625 194.671875 C 83.792969 197.757812 100.441406 200.410156 115.558594 195.085938 C 123.886719 192.15625 131.449219 186.902344 139.625 184.941406 C 156.8125 178.855469 177.015625 191.710938 187.808594 204.289062 C 190.273438 207.160156 193.015625 212.1875 194.152344 216.726562 L 214.320312 206.476562 C 213.269531 203.238281 213.140625 199.886719 212.765625 196.511719 C 210.527344 176.542969 213.339844 156.027344 220.84375 137.386719 Z M 121.53125 68.511719 C 118.609375 64.363281 111.242188 64.535156 107.351562 61.089844 C 105.828125 59.742188 104.957031 57.921875 104.105469 56.140625 C 103.511719 54.925781 102.9375 53.707031 102.355469 52.492188 C 105.085938 54.242188 108.925781 55.09375 112.492188 56.191406 C 116.054688 57.308594 119.679688 58.941406 121.035156 62.019531 C 121.914062 63.980469 121.726562 66.292969 121.53125 68.511719 Z M 137.082031 77.832031 C 136.941406 78.019531 136.753906 78.210938 136.527344 78.289062 C 136.289062 78.367188 136.03125 78.296875 135.816406 78.230469 C 133.359375 77.527344 130.933594 76.753906 128.539062 75.902344 C 128.3125 75.152344 129.378906 74.527344 130.222656 74.289062 C 131.0625 74.0625 132.140625 73.539062 132.023438 72.757812 C 131.984375 72.449219 131.734375 72.222656 131.527344 72.015625 C 130.210938 70.71875 129.121094 69.214844 128.449219 67.492188 C 127.648438 65.464844 127.449219 63.175781 126.507812 61.207031 C 125.527344 59.179688 123.746094 57.578125 121.578125 56.746094 C 124.144531 57.515625 126.113281 58.300781 128.074219 59.070312 C 130.984375 60.230469 134.113281 61.574219 135.328125 64.34375 C 136.449219 66.867188 135.6875 69.996094 136.519531 72.648438 C 137.0625 74.351562 138.199219 76.21875 137.082031 77.832031 Z M 143.386719 81.328125 C 141.785156 81.839844 139.921875 81.484375 137.921875 80.960938 C 140.457031 80.265625 141.554688 77.199219 141.4375 74.566406 C 141.320312 71.945312 140.378906 69.371094 140.527344 66.738281 C 140.585938 65.652344 140.84375 64.574219 140.765625 63.484375 C 140.535156 60.761719 138.269531 58.488281 138.21875 55.765625 C 138.21875 55.449219 138.25 55.101562 138.429688 54.84375 C 138.675781 54.519531 139.089844 54.390625 139.496094 54.390625 C 140.617188 54.378906 141.617188 55.132812 142.320312 56.011719 C 143.023438 56.882812 143.507812 57.914062 144.179688 58.8125 C 144.773438 59.605469 145.535156 60.296875 145.933594 61.199219 C 146.269531 61.96875 146.308594 62.820312 146.347656 63.652344 C 146.535156 67.324219 146.722656 71.003906 146.914062 74.667969 C 146.972656 75.726562 147.019531 76.792969 146.742188 77.792969 C 146.308594 79.4375 145 80.800781 143.386719 81.328125 Z M 154.84375 51.640625 C 157.882812 56.300781 160.613281 61.167969 162.980469 66.207031 C 163.761719 67.847656 164.503906 69.582031 164.523438 71.402344 C 164.523438 73.628906 163.425781 75.726562 161.910156 77.347656 C 160.414062 78.980469 158.523438 80.207031 156.167969 81.097656 C 157.128906 78.574219 159.960938 76.792969 159.988281 74.09375 C 159.988281 73.183594 159.664062 72.3125 159.335938 71.449219 C 157.5625 66.847656 155.792969 62.226562 154.011719 57.605469 C 153.613281 56.566406 153.199219 55.488281 153.226562 54.371094 C 153.25 53.253906 153.8125 52.066406 154.84375 51.640625 Z M 149.773438 55.339844 C 150.910156 56.101562 151.335938 57.527344 151.683594 58.832031 C 152.800781 63.070312 153.921875 67.285156 155.039062 71.507812 C 155.882812 74.734375 156.613281 78.535156 154.4375 81.058594 C 152.734375 83.039062 149.675781 83.402344 146.4375 82.800781 C 148.425781 81.644531 149.546875 79.355469 149.871094 77.089844 C 150.1875 74.816406 149.8125 72.507812 149.445312 70.234375 C 148.792969 66.226562 148.140625 62.207031 147.488281 58.210938 C 147.378906 57.578125 147.289062 56.921875 147.4375 56.289062 C 147.585938 55.667969 148.089844 55.09375 148.734375 55.023438 C 149.101562 54.992188 149.464844 55.132812 149.773438 55.339844 Z M 110.125 41.367188 C 114.835938 41.21875 119.480469 42.070312 124.054688 42.929688 C 129.765625 43.988281 135.496094 45.058594 141.21875 46.117188 C 143.644531 46.5625 146.210938 47.078125 147.933594 48.710938 C 145.960938 48.839844 144.585938 51.550781 142.585938 52.300781 C 141.734375 52.617188 140.8125 52.558594 139.914062 52.617188 C 137.546875 52.777344 135.222656 53.847656 133.566406 55.527344 C 133.152344 55.964844 132.765625 56.429688 132.230469 56.734375 C 131.160156 57.347656 129.804688 57.121094 128.757812 56.578125 C 127.707031 56.03125 126.855469 55.222656 125.816406 54.65625 C 122.320312 52.746094 117.628906 53.964844 113.855469 52.578125 C 112.453125 52.054688 111.222656 51.195312 109.859375 50.621094 C 107.679688 49.679688 105.183594 49.480469 102.839844 48.976562 C 100.484375 48.460938 98.066406 47.550781 96.761719 45.671875 C 100.511719 42.761719 105.402344 41.515625 110.125 41.367188 Z M 23.445312 165.855469 C 21.621094 166.65625 19.839844 167.832031 17.851562 167.792969 C 14.769531 167.746094 12.582031 164.90625 10.871094 162.351562 C 9.949219 160.996094 9.03125 159.582031 8.691406 157.957031 C 8 154.515625 10.1875 151.238281 12.21875 148.359375 C 17.730469 140.472656 22.742188 132.238281 27.183594 123.710938 C 29.078125 120.085938 31.066406 116.8125 33.214844 113.734375 C 34.640625 109.925781 36.582031 106.28125 38.886719 102.976562 C 45.976562 92.804688 56.09375 85.207031 65.289062 76.300781 C 64.179688 77.675781 63.140625 79.089844 62.152344 80.542969 C 62.875 79.882812 63.617188 79.257812 64.367188 78.675781 C 75.554688 70.015625 81.238281 61.753906 93.742188 49.957031 C 97.574219 54.261719 101.078125 57.042969 98.71875 61.691406 C 95.363281 68.324219 88.644531 72.597656 84.554688 78.8125 C 80.703125 84.679688 79.476562 91.84375 76.722656 98.296875 C 75.03125 102.304688 72.742188 106.105469 71.84375 110.351562 C 70.902344 114.824219 71.59375 119.472656 71.269531 124.046875 C 70.894531 129.289062 69.070312 134.566406 65.386719 138.316406 C 61.546875 142.242188 56.121094 144.152344 50.855469 145.707031 C 45.589844 147.261719 40.113281 148.644531 35.640625 151.824219 C 31.175781 155.019531 27.878906 160.570312 29.046875 166.101562 C 27.632812 164.695312 25.265625 165.042969 23.445312 165.855469 Z M 68.128906 141.382812 C 63.515625 149.328125 56.160156 155.375 47.707031 158.078125 C 42.34375 159.777344 36.273438 160.351562 32.144531 164.164062 C 34.441406 159.582031 37.855469 155.324219 42.558594 153.296875 C 44.726562 152.367188 47.074219 151.941406 49.339844 151.289062 C 56.183594 149.320312 62.210938 145.320312 68.128906 141.382812 Z M 138.4375 179.324219 C 122.933594 192.109375 101.621094 197.558594 81.890625 193.769531 C 76.207031 192.679688 70.695312 190.878906 65.199219 189.078125 C 51.945312 184.746094 38.492188 180.320312 27.046875 172.386719 C 35.53125 172.007812 43.074219 167.210938 50.507812 163.105469 C 57.945312 158.988281 66.496094 155.34375 74.722656 157.441406 C 84.664062 159.976562 91.878906 170.386719 102.136719 170.574219 C 96.621094 172.109375 91.097656 173.640625 85.574219 175.136719 C 81.554688 176.214844 77.417969 177.292969 73.277344 176.808594 C 82.851562 179.390625 93.066406 179.53125 102.710938 177.195312 C 108.234375 175.859375 113.539062 173.730469 119.023438 172.238281 C 124.507812 170.742188 130.332031 169.871094 135.875 171.117188 C 137.410156 171.457031 140.902344 171.902344 141.230469 174.601562 C 141.457031 176.503906 139.914062 178.09375 138.4375 179.324219 Z M 143.011719 160.363281 C 140.042969 161.757812 137.566406 164.191406 134.410156 165.011719 C 131.289062 165.824219 128.015625 164.945312 124.796875 164.863281 C 117.261719 164.6875 109.859375 168.890625 102.472656 167.386719 C 96.335938 166.152344 91.703125 161.261719 87.246094 156.859375 C 82.78125 152.457031 77.40625 148.050781 71.140625 148.210938 C 74.082031 145.65625 77.03125 143.125 79.96875 140.570312 C 80.011719 140.542969 80.050781 140.503906 80.089844 140.472656 C 79.050781 137.214844 79.949219 133.800781 81.988281 132.863281 C 82.445312 134.347656 83.128906 135.820312 83.980469 137.226562 C 85.574219 135.96875 87.238281 134.8125 89.019531 133.863281 C 97.375 129.410156 107.75 130.011719 116.558594 133.484375 C 118.808594 134.367188 121.023438 135.433594 123.402344 135.78125 C 125.65625 136.117188 127.945312 135.78125 130.222656 135.753906 C 141.753906 135.574219 152.871094 143.914062 155.941406 155.027344 C 155.585938 154.535156 158.039062 158.976562 159.226562 163.71875 C 155.296875 159.292969 148.367188 157.859375 143.011719 160.363281 Z M 143.011719 160.363281 " fill-opacity="1" fill-rule="nonzero"/></g><path fill="#000000" d="M 68.128906 141.382812 C 63.515625 149.328125 56.160156 155.375 47.707031 158.078125 C 42.34375 159.777344 36.273438 160.351562 32.144531 164.164062 C 34.441406 159.582031 37.855469 155.324219 42.558594 153.296875 C 44.726562 152.367188 47.074219 151.941406 49.339844 151.289062 C 56.183594 149.320312 62.210938 145.320312 68.128906 141.382812 Z M 68.128906 141.382812 " fill-opacity="1" fill-rule="nonzero"/><path fill="#000000" d="M 98.71875 61.691406 C 95.363281 68.324219 88.644531 72.597656 84.554688 78.8125 C 80.703125 84.679688 79.476562 91.84375 76.722656 98.296875 C 75.03125 102.304688 72.742188 106.105469 71.84375 110.351562 C 70.902344 114.824219 71.59375 119.472656 71.269531 124.046875 C 70.894531 129.289062 69.070312 134.566406 65.386719 138.316406 C 61.546875 142.242188 56.121094 144.152344 50.855469 145.707031 C 45.589844 147.261719 40.113281 148.644531 35.640625 151.824219 C 31.175781 155.019531 27.878906 160.570312 29.046875 166.101562 C 27.632812 164.695312 25.265625 165.042969 23.445312 165.855469 C 21.621094 166.65625 19.839844 167.832031 17.851562 167.792969 C 14.769531 167.746094 12.582031 164.90625 10.871094 162.351562 C 9.949219 160.996094 9.03125 159.582031 8.691406 157.957031 C 8 154.515625 10.1875 151.238281 12.21875 148.359375 C 17.730469 140.472656 22.742188 132.238281 27.183594 123.710938 C 29.078125 120.085938 31.066406 116.8125 33.214844 113.734375 C 34.640625 109.925781 36.582031 106.28125 38.886719 102.976562 C 45.976562 92.804688 56.09375 85.207031 65.289062 76.300781 C 64.179688 77.675781 63.140625 79.089844 62.152344 80.542969 C 62.875 79.882812 63.617188 79.257812 64.367188 78.675781 C 75.554688 70.015625 81.238281 61.753906 93.742188 49.957031 C 97.574219 54.261719 101.078125 57.042969 98.71875 61.691406 Z M 98.71875 61.691406 " fill-opacity="1" fill-rule="nonzero"/><path fill="#000000" d="M 121.53125 68.511719 C 118.609375 64.363281 111.242188 64.535156 107.351562 61.089844 C 105.828125 59.742188 104.957031 57.921875 104.105469 56.140625 C 103.511719 54.925781 102.9375 53.707031 102.355469 52.492188 C 105.085938 54.242188 108.925781 55.09375 112.492188 56.191406 C 116.054688 57.308594 119.679688 58.941406 121.035156 62.019531 C 121.914062 63.980469 121.726562 66.292969 121.53125 68.511719 Z M 121.53125 68.511719 " fill-opacity="1" fill-rule="nonzero"/><path fill="#000000" d="M 137.082031 77.832031 C 136.941406 78.019531 136.753906 78.210938 136.527344 78.289062 C 136.289062 78.367188 136.03125 78.296875 135.816406 78.230469 C 133.359375 77.527344 130.933594 76.753906 128.539062 75.902344 C 128.3125 75.152344 129.378906 74.527344 130.222656 74.289062 C 131.0625 74.0625 132.140625 73.539062 132.023438 72.757812 C 131.984375 72.449219 131.734375 72.222656 131.527344 72.015625 C 130.210938 70.71875 129.121094 69.214844 128.449219 67.492188 C 127.648438 65.464844 127.449219 63.175781 126.507812 61.207031 C 125.527344 59.179688 123.746094 57.578125 121.578125 56.746094 C 124.144531 57.515625 126.113281 58.300781 128.074219 59.070312 C 130.984375 60.230469 134.113281 61.574219 135.328125 64.34375 C 136.449219 66.867188 135.6875 69.996094 136.519531 72.648438 C 137.0625 74.351562 138.199219 76.21875 137.082031 77.832031 Z M 137.082031 77.832031 " fill-opacity="1" fill-rule="nonzero"/><path fill="#000000" d="M 138.4375 179.324219 C 122.933594 192.109375 101.621094 197.558594 81.890625 193.769531 C 76.207031 192.679688 70.695312 190.878906 65.199219 189.078125 C 51.945312 184.746094 38.492188 180.320312 27.046875 172.386719 C 35.53125 172.007812 43.074219 167.210938 50.507812 163.105469 C 57.945312 158.988281 66.496094 155.34375 74.722656 157.441406 C 84.664062 159.976562 91.878906 170.386719 102.136719 170.574219 C 96.621094 172.109375 91.097656 173.640625 85.574219 175.136719 C 81.554688 176.214844 77.417969 177.292969 73.277344 176.808594 C 82.851562 179.390625 93.066406 179.53125 102.710938 177.195312 C 108.234375 175.859375 113.539062 173.730469 119.023438 172.238281 C 124.507812 170.742188 130.332031 169.871094 135.875 171.117188 C 137.410156 171.457031 140.902344 171.902344 141.230469 174.601562 C 141.457031 176.503906 139.914062 178.09375 138.4375 179.324219 Z M 138.4375 179.324219 " fill-opacity="1" fill-rule="nonzero"/><path fill="#000000" d="M 147.933594 48.710938 C 145.960938 48.839844 144.585938 51.550781 142.585938 52.300781 C 141.734375 52.617188 140.8125 52.558594 139.914062 52.617188 C 137.546875 52.777344 135.222656 53.847656 133.566406 55.527344 C 133.152344 55.964844 132.765625 56.429688 132.230469 56.734375 C 131.160156 57.347656 129.804688 57.121094 128.757812 56.578125 C 127.707031 56.03125 126.855469 55.222656 125.816406 54.65625 C 122.320312 52.746094 117.628906 53.964844 113.855469 52.578125 C 112.453125 52.054688 111.222656 51.195312 109.859375 50.621094 C 107.679688 49.679688 105.183594 49.480469 102.839844 48.976562 C 100.484375 48.460938 98.066406 47.550781 96.761719 45.671875 C 100.511719 42.761719 105.402344 41.515625 110.125 41.367188 C 114.835938 41.21875 119.480469 42.070312 124.054688 42.929688 C 129.765625 43.988281 135.496094 45.058594 141.21875 46.117188 C 143.644531 46.5625 146.210938 47.078125 147.933594 48.710938 Z M 147.933594 48.710938 " fill-opacity="1" fill-rule="nonzero"/><path fill="#000000" d="M 146.742188 77.792969 C 146.308594 79.4375 145 80.800781 143.386719 81.328125 C 141.785156 81.839844 139.921875 81.484375 137.921875 80.960938 C 140.457031 80.265625 141.554688 77.199219 141.4375 74.566406 C 141.320312 71.945312 140.378906 69.371094 140.527344 66.738281 C 140.585938 65.652344 140.84375 64.574219 140.765625 63.484375 C 140.535156 60.761719 138.269531 58.488281 138.21875 55.765625 C 138.21875 55.449219 138.25 55.101562 138.429688 54.84375 C 138.675781 54.519531 139.089844 54.390625 139.496094 54.390625 C 140.617188 54.378906 141.617188 55.132812 142.320312 56.011719 C 143.023438 56.882812 143.507812 57.914062 144.179688 58.8125 C 144.773438 59.605469 145.535156 60.296875 145.933594 61.199219 C 146.269531 61.96875 146.308594 62.820312 146.347656 63.652344 C 146.535156 67.324219 146.722656 71.003906 146.914062 74.667969 C 146.972656 75.726562 147.019531 76.792969 146.742188 77.792969 Z M 146.742188 77.792969 " fill-opacity="1" fill-rule="nonzero"/><path fill="#000000" d="M 154.4375 81.058594 C 152.734375 83.039062 149.675781 83.402344 146.4375 82.800781 C 148.425781 81.644531 149.546875 79.355469 149.871094 77.089844 C 150.1875 74.816406 149.8125 72.507812 149.445312 70.234375 C 148.792969 66.226562 148.140625 62.207031 147.488281 58.210938 C 147.378906 57.578125 147.289062 56.921875 147.4375 56.289062 C 147.585938 55.667969 148.089844 55.09375 148.734375 55.023438 C 149.101562 54.992188 149.464844 55.132812 149.773438 55.339844 C 150.910156 56.101562 151.335938 57.527344 151.683594 58.832031 C 152.800781 63.070312 153.921875 67.285156 155.039062 71.507812 C 155.882812 74.734375 156.613281 78.535156 154.4375 81.058594 Z M 154.4375 81.058594 " fill-opacity="1" fill-rule="nonzero"/><path fill="#000000" d="M 159.226562 163.71875 C 155.296875 159.292969 148.367188 157.859375 143.011719 160.363281 C 140.042969 161.757812 137.566406 164.191406 134.410156 165.011719 C 131.289062 165.824219 128.015625 164.945312 124.796875 164.863281 C 117.261719 164.6875 109.859375 168.890625 102.472656 167.386719 C 96.335938 166.152344 91.703125 161.261719 87.246094 156.859375 C 82.78125 152.457031 77.40625 148.050781 71.140625 148.210938 C 74.082031 145.65625 77.03125 143.125 79.96875 140.570312 C 80.011719 140.542969 80.050781 140.503906 80.089844 140.472656 C 79.050781 137.214844 79.949219 133.800781 81.988281 132.863281 C 82.445312 134.347656 83.128906 135.820312 83.980469 137.226562 C 85.574219 135.96875 87.238281 134.8125 89.019531 133.863281 C 97.375 129.410156 107.75 130.011719 116.558594 133.484375 C 118.808594 134.367188 121.023438 135.433594 123.402344 135.78125 C 125.65625 136.117188 127.945312 135.78125 130.222656 135.753906 C 141.753906 135.574219 152.871094 143.914062 155.941406 155.027344 C 155.585938 154.535156 158.039062 158.976562 159.226562 163.71875 Z M 159.226562 163.71875 " fill-opacity="1" fill-rule="nonzero"/><path fill="#000000" d="M 164.523438 71.402344 C 164.523438 73.628906 163.425781 75.726562 161.910156 77.347656 C 160.414062 78.980469 158.523438 80.207031 156.167969 81.097656 C 157.128906 78.574219 159.960938 76.792969 159.988281 74.09375 C 159.988281 73.183594 159.664062 72.3125 159.335938 71.449219 C 157.5625 66.847656 155.792969 62.226562 154.011719 57.605469 C 153.613281 56.566406 153.199219 55.488281 153.226562 54.371094 C 153.25 53.253906 153.8125 52.066406 154.84375 51.640625 C 157.882812 56.300781 160.613281 61.167969 162.980469 66.207031 C 163.761719 67.847656 164.503906 69.582031 164.523438 71.402344 Z M 164.523438 71.402344 " fill-opacity="1" fill-rule="nonzero"/><path fill="#ffffff" d="M 196.402344 184.308594 C 191.441406 178.054688 181.238281 176.230469 174.179688 171.421875 C 164.417969 164.761719 161.5625 153.113281 155.859375 143.464844 C 152.621094 137.980469 146.894531 132.429688 139.894531 133.316406 C 147.53125 126.304688 159.480469 123.167969 170.113281 125.382812 C 179.421875 127.320312 187.21875 132.890625 196.261719 135.5625 C 202.113281 151.15625 200.5 168.042969 196.402344 184.308594 Z M 196.402344 184.308594 " fill-opacity="1" fill-rule="nonzero"/><path fill="#ffffff" d="M 159.230469 163.710938 C 155.300781 159.289062 148.371094 157.855469 143.015625 160.359375 C 140.042969 161.753906 137.570312 164.1875 134.410156 165.007812 C 131.292969 165.820312 128.015625 164.9375 124.796875 164.859375 C 117.265625 164.683594 109.859375 168.886719 102.472656 167.382812 C 96.335938 166.144531 91.703125 161.257812 87.25 156.855469 C 82.785156 152.449219 77.410156 148.046875 71.140625 148.207031 C 74.082031 145.652344 77.03125 143.121094 79.972656 140.566406 C 80.011719 140.535156 80.050781 140.496094 80.089844 140.46875 C 81.367188 139.359375 82.65625 138.261719 83.980469 137.222656 C 85.574219 135.964844 87.238281 134.808594 89.019531 133.855469 C 97.375 129.402344 107.75 130.007812 116.5625 133.480469 C 118.808594 134.363281 121.027344 135.429688 123.402344 135.777344 C 125.660156 136.113281 127.945312 135.777344 130.222656 135.746094 C 141.757812 135.570312 152.875 143.910156 155.941406 155.023438 C 155.585938 154.527344 158.042969 158.972656 159.230469 163.710938 Z M 159.230469 163.710938 " fill-opacity="1" fill-rule="nonzero"/><path fill="#ffffff" d="M 138.441406 179.316406 C 122.9375 192.101562 101.625 197.554688 81.894531 193.765625 C 76.210938 192.675781 70.695312 190.875 65.203125 189.074219 C 51.945312 184.742188 38.492188 180.316406 27.050781 172.378906 C 35.53125 172.003906 43.078125 167.207031 50.511719 163.097656 C 57.945312 158.980469 66.5 155.339844 74.726562 157.4375 C 84.664062 159.972656 91.882812 170.382812 102.136719 170.570312 C 96.625 172.105469 91.101562 173.636719 85.574219 175.132812 C 81.554688 176.210938 77.417969 177.289062 73.28125 176.804688 C 82.851562 179.386719 93.070312 179.523438 102.710938 177.191406 C 108.234375 175.855469 113.542969 173.726562 119.027344 172.230469 C 124.511719 170.738281 130.332031 169.867188 135.875 171.113281 C 137.410156 171.449219 140.90625 171.894531 141.230469 174.597656 C 141.460938 176.496094 139.914062 178.089844 138.441406 179.316406 Z M 138.441406 179.316406 " fill-opacity="1" fill-rule="nonzero"/><path fill="#ffffff" d="M 98.722656 61.6875 C 95.367188 68.320312 88.644531 72.59375 84.554688 78.808594 C 80.707031 84.675781 79.476562 91.839844 76.726562 98.292969 C 75.03125 102.300781 72.746094 106.101562 71.84375 110.34375 C 70.90625 114.816406 71.597656 119.46875 71.269531 124.039062 C 70.894531 129.285156 69.074219 134.558594 65.390625 138.308594 C 61.550781 142.238281 56.125 144.148438 50.859375 145.703125 C 45.589844 147.253906 40.117188 148.640625 35.640625 151.816406 C 31.175781 155.015625 27.878906 160.566406 29.046875 166.097656 C 27.632812 164.691406 25.265625 165.039062 23.445312 165.847656 C 21.625 166.652344 19.84375 167.828125 17.851562 167.789062 C 14.773438 167.738281 12.585938 164.898438 10.871094 162.347656 C 9.953125 160.992188 9.03125 159.574219 8.695312 157.953125 C 8 154.507812 10.191406 151.234375 12.21875 148.355469 C 17.734375 140.46875 22.742188 132.234375 27.1875 123.703125 C 29.078125 120.082031 31.066406 116.808594 33.214844 113.730469 C 37.105469 108.128906 41.492188 103.160156 46.589844 97.886719 C 46.601562 97.875 46.621094 97.855469 46.640625 97.835938 C 46.917969 97.539062 47.214844 97.242188 47.5 96.945312 C 52.332031 92 56.886719 85.347656 62.152344 80.539062 C 62.875 79.875 63.617188 79.253906 64.371094 78.667969 C 75.558594 70.011719 81.238281 61.746094 93.742188 49.953125 C 97.574219 54.257812 101.078125 57.039062 98.722656 61.6875 Z M 98.722656 61.6875 " fill-opacity="1" fill-rule="nonzero"/><path fill="#ffffff" d="M 68.132812 141.378906 C 63.519531 149.324219 56.164062 155.371094 47.710938 158.070312 C 42.34375 159.773438 36.277344 160.347656 32.148438 164.15625 C 34.445312 159.574219 37.859375 155.320312 42.5625 153.292969 C 44.730469 152.363281 47.074219 151.9375 49.34375 151.285156 C 56.183594 149.3125 62.210938 145.316406 68.132812 141.378906 Z M 68.132812 141.378906 " fill-opacity="1" fill-rule="nonzero"/><path fill="#ffffff" d="M 121.53125 68.507812 C 118.609375 64.359375 111.246094 64.527344 107.355469 61.085938 C 105.832031 59.738281 104.960938 57.917969 104.109375 56.136719 C 103.515625 54.917969 102.941406 53.703125 102.355469 52.484375 C 105.089844 54.238281 108.929688 55.089844 112.492188 56.1875 C 116.058594 57.304688 119.679688 58.9375 121.035156 62.015625 C 121.917969 63.972656 121.730469 66.289062 121.53125 68.507812 Z M 121.53125 68.507812 " fill-opacity="1" fill-rule="nonzero"/><path fill="#ffffff" d="M 137.082031 77.828125 C 136.945312 78.015625 136.757812 78.203125 136.53125 78.285156 C 136.292969 78.363281 136.035156 78.292969 135.816406 78.222656 C 133.363281 77.519531 130.9375 76.75 128.539062 75.898438 C 128.3125 75.144531 129.382812 74.523438 130.222656 74.285156 C 131.066406 74.058594 132.144531 73.535156 132.023438 72.75 C 131.984375 72.445312 131.738281 72.21875 131.53125 72.007812 C 130.214844 70.714844 129.125 69.210938 128.453125 67.488281 C 127.648438 65.457031 127.453125 63.171875 126.511719 61.203125 C 125.53125 59.175781 123.75 57.570312 121.582031 56.742188 C 124.144531 57.511719 126.113281 58.292969 128.074219 59.066406 C 130.984375 60.222656 134.113281 61.570312 135.332031 64.339844 C 136.449219 66.863281 135.6875 69.992188 136.519531 72.644531 C 137.0625 74.34375 138.203125 76.214844 137.082031 77.828125 Z M 137.082031 77.828125 " fill-opacity="1" fill-rule="nonzero"/><path fill="#ffffff" d="M 146.746094 77.789062 C 146.308594 79.429688 145.003906 80.796875 143.390625 81.320312 C 141.785156 81.835938 139.925781 81.480469 137.925781 80.957031 C 140.460938 80.261719 141.558594 77.195312 141.441406 74.5625 C 141.320312 71.941406 140.378906 69.367188 140.527344 66.734375 C 140.589844 65.648438 140.847656 64.566406 140.765625 63.480469 C 140.539062 60.757812 138.273438 58.480469 138.222656 55.761719 C 138.222656 55.445312 138.253906 55.097656 138.429688 54.839844 C 138.679688 54.515625 139.09375 54.386719 139.5 54.386719 C 140.617188 54.375 141.617188 55.128906 142.320312 56.007812 C 143.023438 56.878906 143.507812 57.910156 144.183594 58.808594 C 144.777344 59.601562 145.539062 60.292969 145.933594 61.195312 C 146.269531 61.964844 146.308594 62.816406 146.351562 63.648438 C 146.539062 67.320312 146.726562 71 146.914062 74.660156 C 146.972656 75.71875 147.023438 76.789062 146.746094 77.789062 Z M 146.746094 77.789062 " fill-opacity="1" fill-rule="nonzero"/><path fill="#ffffff" d="M 154.4375 81.054688 C 152.734375 83.03125 149.675781 83.398438 146.4375 82.796875 C 148.429688 81.636719 149.546875 79.351562 149.875 77.085938 C 150.191406 74.808594 149.816406 72.503906 149.449219 70.226562 C 148.796875 66.21875 148.140625 62.203125 147.488281 58.207031 C 147.378906 57.570312 147.289062 56.917969 147.4375 56.285156 C 147.585938 55.660156 148.09375 55.089844 148.734375 55.019531 C 149.101562 54.988281 149.46875 55.128906 149.773438 55.335938 C 150.914062 56.097656 151.339844 57.523438 151.6875 58.828125 C 152.804688 63.0625 153.921875 67.28125 155.042969 71.503906 C 155.882812 74.730469 156.617188 78.53125 154.4375 81.054688 Z M 154.4375 81.054688 " fill-opacity="1" fill-rule="nonzero"/><path fill="#ffffff" d="M 164.527344 71.394531 C 164.527344 73.621094 163.425781 75.71875 161.914062 77.34375 C 160.417969 78.976562 158.527344 80.203125 156.171875 81.09375 C 157.128906 78.570312 159.960938 76.789062 159.992188 74.085938 C 159.992188 73.175781 159.664062 72.304688 159.339844 71.445312 C 157.566406 66.84375 155.792969 62.222656 154.011719 57.601562 C 153.617188 56.5625 153.199219 55.484375 153.230469 54.367188 C 153.25 53.246094 153.8125 52.058594 154.84375 51.632812 C 157.882812 56.296875 160.617188 61.164062 162.980469 66.199219 C 163.761719 67.84375 164.507812 69.574219 164.527344 71.394531 Z M 164.527344 71.394531 " fill-opacity="1" fill-rule="nonzero"/><path fill="#ffffff" d="M 147.933594 48.707031 C 145.964844 48.832031 144.585938 51.546875 142.589844 52.296875 C 141.738281 52.613281 140.816406 52.554688 139.914062 52.613281 C 137.550781 52.773438 135.222656 53.839844 133.570312 55.523438 C 133.152344 55.957031 132.769531 56.425781 132.234375 56.730469 C 131.164062 57.34375 129.808594 57.117188 128.757812 56.574219 C 127.707031 56.027344 126.859375 55.214844 125.816406 54.652344 C 122.324219 52.742188 117.632812 53.960938 113.859375 52.574219 C 112.453125 52.050781 111.226562 51.1875 109.859375 50.613281 C 107.683594 49.675781 105.1875 49.476562 102.839844 48.972656 C 100.484375 48.457031 98.070312 47.546875 96.761719 45.667969 C 100.515625 42.757812 105.40625 41.511719 110.128906 41.363281 C 114.839844 41.214844 119.480469 42.066406 124.054688 42.925781 C 129.769531 43.984375 135.5 45.054688 141.222656 46.113281 C 143.648438 46.558594 146.210938 47.074219 147.933594 48.707031 Z M 147.933594 48.707031 " fill-opacity="1" fill-rule="nonzero"/><path fill="#000000" d="M 65.292969 76.292969 C 64.183594 77.667969 63.144531 79.085938 62.152344 80.539062 C 55.75 89.960938 51.847656 101.082031 51.015625 112.460938 C 48.371094 108.058594 46.847656 102.984375 46.640625 97.835938 L 46.640625 97.808594 C 46.621094 97.835938 46.609375 97.855469 46.589844 97.886719 C 38.761719 109.929688 33.851562 123.863281 32.40625 138.152344 C 29.515625 130.292969 30.246094 121.644531 33.214844 113.730469 C 34.640625 109.917969 36.582031 106.277344 38.890625 102.972656 C 45.976562 92.800781 56.09375 85.199219 65.292969 76.292969 Z M 65.292969 76.292969 " fill-opacity="1" fill-rule="nonzero"/><path fill="#000000" d="M 106.492188 145.070312 C 105.683594 148.472656 102.070312 149.730469 98.59375 150.125 C 95.4375 150.480469 92.019531 150.371094 88.625 148.996094 C 85.238281 147.613281 81.894531 144.792969 80.398438 141.308594 C 80.28125 141.03125 80.179688 140.753906 80.089844 140.46875 C 79.050781 137.210938 79.953125 133.796875 81.992188 132.859375 C 82.449219 134.34375 83.128906 135.816406 83.980469 137.222656 C 86.089844 140.714844 89.257812 143.753906 92.761719 145.503906 C 97.683594 147.957031 103.097656 147.78125 106.492188 145.070312 Z M 106.492188 145.070312 " fill-opacity="1" fill-rule="nonzero"/><path fill="#000000" d="M 179.535156 142.65625 C 187.925781 147.234375 195.769531 152.636719 202.886719 158.738281 C 204.550781 160.167969 206.210938 161.671875 207.191406 163.558594 C 208.253906 165.605469 208.4375 167.9375 208.503906 170.210938 C 208.585938 172.855469 208.996094 176.15625 208.164062 178.679688 C 205.707031 177.066406 204.007812 171.515625 202.414062 168.964844 C 200.371094 165.6875 198.140625 162.507812 195.734375 159.4375 C 193.332031 156.371094 190.757812 153.414062 188.023438 150.585938 C 185.601562 148.078125 182.703125 144.386719 179.535156 142.65625 Z M 179.535156 142.65625 " fill-opacity="1" fill-rule="nonzero"/><path fill="#000000" d="M 62.546875 284.433594 C 63.589844 291.84375 66.59375 298.707031 71.15625 304.289062 C 71.957031 305.269531 73.3125 305.597656 74.46875 305.09375 L 147.132812 273.351562 C 148.355469 262.433594 144.292969 252.78125 135.667969 249.300781 L 64.175781 281.460938 C 63.03125 281.976562 62.371094 283.1875 62.546875 284.433594 Z M 62.546875 284.433594 " fill-opacity="1" fill-rule="nonzero"/><path stroke-linecap="butt" transform="matrix(0.989968, 0, 0, 0.989561, 0.692982, 37.602423)" fill-opacity="1" fill="#000000" fill-rule="nonzero" stroke-linejoin="miter" d="M 66.241056 253.832386 L 141.184266 219.754 " stroke="#ffffff" stroke-width="2.179" stroke-opacity="1" stroke-miterlimit="10"/><path fill="#000000" d="M 68.617188 294.03125 L 143.789062 260.644531 " fill-opacity="1" fill-rule="nonzero"/><g clip-path="url(#4be0118403)"><path stroke-linecap="butt" transform="matrix(0.989968, 0, 0, 0.989561, 0.692982, 37.602423)" fill="none" stroke-linejoin="miter" d="M 68.612502 259.133819 L 144.546116 225.394914 " stroke="#ffffff" stroke-width="5.448" stroke-opacity="1" stroke-miterlimit="10"/></g><path stroke-linecap="butt" transform="matrix(0.989968, 0, 0, 0.989561, 0.692982, 37.602423)" fill="none" stroke-linejoin="miter" d="M 134.973525 240.805782 L 76.953993 266.851096 C 75.505872 267.498478 73.493497 267.032679 72.471527 265.82081 C 69.255673 262.011515 66.939468 255.09952 65.787285 251.06522 C 65.270381 249.257285 66.158193 247.350664 67.866739 246.56512 L 136.031008 215.589434 C 136.031008 215.589434 147.47787 221.02508 145.572033 235.733301 Z M 134.973525 240.805782 " stroke="#ffffff" stroke-width="1" stroke-opacity="1" stroke-miterlimit="10"/><path fill="#000000" d="M 201.964844 241.527344 C 202.421875 242.570312 202.855469 243.625 203.269531 244.6875 C 203.6875 245.746094 204.078125 246.816406 204.449219 247.894531 C 204.820312 248.96875 205.167969 250.050781 205.496094 251.140625 C 205.820312 252.226562 206.125 253.320312 206.40625 254.417969 C 206.6875 255.515625 206.945312 256.617188 207.183594 257.722656 C 207.417969 258.824219 207.628906 259.929688 207.820312 261.039062 C 208.007812 262.148438 208.171875 263.257812 208.316406 264.367188 C 208.457031 265.476562 208.574219 266.585938 208.671875 267.691406 C 208.765625 268.800781 208.835938 269.90625 208.886719 271.011719 C 208.933594 272.113281 208.957031 273.214844 208.957031 274.3125 C 208.957031 275.410156 208.933594 276.503906 208.882812 277.589844 C 208.835938 278.679688 208.765625 279.761719 208.671875 280.835938 C 208.574219 281.914062 208.457031 282.980469 208.316406 284.042969 C 208.171875 285.105469 208.007812 286.160156 207.816406 287.203125 C 207.628906 288.246094 207.417969 289.28125 207.179688 290.308594 C 206.945312 291.332031 206.6875 292.34375 206.40625 293.347656 C 206.125 294.351562 205.820312 295.339844 205.492188 296.320312 C 205.167969 297.296875 204.820312 298.261719 204.449219 299.214844 C 204.078125 300.164062 203.683594 301.101562 203.269531 302.023438 C 202.855469 302.945312 202.421875 303.855469 201.964844 304.746094 C 201.507812 305.636719 201.027344 306.507812 200.53125 307.367188 C 200.03125 308.222656 199.515625 309.0625 198.976562 309.886719 C 198.4375 310.707031 197.878906 311.511719 197.300781 312.292969 C 196.726562 313.078125 196.128906 313.84375 195.515625 314.589844 C 194.898438 315.332031 194.265625 316.058594 193.617188 316.761719 C 192.964844 317.464844 192.296875 318.144531 191.609375 318.808594 C 190.925781 319.46875 190.222656 320.105469 189.507812 320.722656 C 188.789062 321.339844 188.054688 321.929688 187.304688 322.5 C 186.554688 323.070312 185.792969 323.617188 185.015625 324.140625 C 184.234375 324.664062 183.445312 325.160156 182.636719 325.636719 C 181.832031 326.109375 181.011719 326.558594 180.183594 326.984375 C 179.351562 327.40625 178.507812 327.804688 177.652344 328.179688 C 176.796875 328.550781 175.933594 328.898438 175.058594 329.222656 C 174.179688 329.542969 173.296875 329.839844 172.398438 330.109375 C 171.503906 330.378906 170.601562 330.621094 169.6875 330.835938 C 168.777344 331.050781 167.855469 331.242188 166.929688 331.402344 C 166 331.566406 165.066406 331.703125 164.128906 331.808594 C 163.1875 331.917969 162.242188 332 161.292969 332.054688 C 160.339844 332.109375 159.386719 332.132812 158.429688 332.132812 C 157.46875 332.132812 156.507812 332.105469 155.542969 332.050781 C 154.578125 331.996094 153.613281 331.914062 152.644531 331.804688 C 151.675781 331.695312 150.707031 331.558594 149.738281 331.398438 C 148.769531 331.234375 147.800781 331.042969 146.832031 330.828125 C 145.867188 330.609375 144.898438 330.367188 143.933594 330.097656 C 142.96875 329.828125 142.007812 329.53125 141.050781 329.207031 C 140.09375 328.886719 139.136719 328.539062 138.1875 328.164062 C 137.238281 327.789062 136.292969 327.390625 135.351562 326.964844 C 134.410156 326.539062 133.476562 326.089844 132.550781 325.617188 C 131.621094 325.140625 130.703125 324.640625 129.789062 324.117188 C 128.878906 323.59375 127.972656 323.046875 127.078125 322.476562 C 126.183594 321.90625 125.296875 321.3125 124.421875 320.695312 C 123.546875 320.078125 122.679688 319.441406 121.824219 318.78125 C 120.972656 318.117188 120.128906 317.4375 119.296875 316.730469 C 118.464844 316.027344 117.648438 315.300781 116.839844 314.558594 C 116.035156 313.8125 115.242188 313.046875 114.464844 312.261719 C 113.6875 311.476562 112.921875 310.675781 112.171875 309.851562 C 111.425781 309.03125 110.691406 308.1875 109.972656 307.332031 C 109.253906 306.472656 108.554688 305.597656 107.867188 304.707031 C 107.183594 303.816406 106.515625 302.910156 105.863281 301.988281 C 105.214844 301.0625 104.582031 300.125 103.964844 299.175781 C 103.351562 298.222656 102.753906 297.257812 102.175781 296.277344 C 101.601562 295.300781 101.042969 294.308594 100.503906 293.304688 C 99.964844 292.304688 99.449219 291.289062 98.949219 290.265625 C 98.449219 289.238281 97.972656 288.203125 97.515625 287.160156 C 97.058594 286.113281 96.625 285.0625 96.210938 284 C 95.796875 282.9375 95.402344 281.867188 95.03125 280.792969 C 94.660156 279.714844 94.3125 278.632812 93.984375 277.546875 C 93.660156 276.457031 93.355469 275.363281 93.074219 274.265625 C 92.792969 273.167969 92.535156 272.070312 92.300781 270.964844 C 92.0625 269.859375 91.851562 268.753906 91.664062 267.644531 C 91.472656 266.539062 91.308594 265.429688 91.164062 264.320312 C 91.023438 263.210938 90.90625 262.101562 90.808594 260.992188 C 90.714844 259.886719 90.644531 258.78125 90.597656 257.675781 C 90.550781 256.570312 90.523438 255.46875 90.523438 254.375 C 90.523438 253.277344 90.550781 252.183594 90.597656 251.09375 C 90.644531 250.007812 90.714844 248.925781 90.808594 247.847656 C 90.90625 246.773438 91.023438 245.703125 91.167969 244.640625 C 91.308594 243.582031 91.472656 242.527344 91.664062 241.484375 C 91.851562 240.4375 92.066406 239.402344 92.300781 238.378906 C 92.535156 237.355469 92.792969 236.339844 93.074219 235.335938 C 93.355469 234.335938 93.660156 233.34375 93.988281 232.367188 C 94.3125 231.386719 94.664062 230.421875 95.035156 229.472656 C 95.402344 228.519531 95.796875 227.582031 96.210938 226.660156 C 96.625 225.738281 97.0625 224.832031 97.519531 223.941406 C 97.976562 223.050781 98.453125 222.175781 98.949219 221.320312 C 99.449219 220.460938 99.96875 219.621094 100.503906 218.800781 C 101.042969 217.980469 101.601562 217.175781 102.179688 216.390625 C 102.757812 215.605469 103.351562 214.84375 103.96875 214.097656 C 104.582031 213.351562 105.214844 212.628906 105.867188 211.925781 C 106.515625 211.222656 107.183594 210.539062 107.871094 209.878906 C 108.554688 209.21875 109.257812 208.582031 109.976562 207.964844 C 110.691406 207.347656 111.425781 206.753906 112.175781 206.183594 C 112.925781 205.613281 113.6875 205.070312 114.46875 204.546875 C 115.246094 204.023438 116.039062 203.523438 116.84375 203.050781 C 117.648438 202.578125 118.46875 202.128906 119.300781 201.703125 C 120.128906 201.277344 120.972656 200.878906 121.828125 200.507812 C 122.683594 200.132812 123.546875 199.785156 124.425781 199.464844 C 125.300781 199.144531 126.1875 198.847656 127.082031 198.578125 C 127.976562 198.308594 128.878906 198.066406 129.792969 197.851562 C 130.707031 197.632812 131.625 197.445312 132.554688 197.28125 C 133.480469 197.121094 134.414062 196.984375 135.355469 196.875 C 136.292969 196.769531 137.238281 196.6875 138.191406 196.632812 C 139.140625 196.578125 140.09375 196.550781 141.054688 196.550781 C 142.011719 196.550781 142.972656 196.578125 143.9375 196.632812 C 144.902344 196.691406 145.867188 196.773438 146.835938 196.878906 C 147.804688 196.988281 148.773438 197.125 149.742188 197.289062 C 150.710938 197.453125 151.679688 197.640625 152.648438 197.859375 C 153.617188 198.074219 154.582031 198.320312 155.546875 198.589844 C 156.511719 198.859375 157.472656 199.15625 158.429688 199.476562 C 159.390625 199.800781 160.34375 200.148438 161.292969 200.523438 C 162.246094 200.898438 163.191406 201.296875 164.128906 201.722656 C 165.070312 202.144531 166.003906 202.597656 166.929688 203.070312 C 167.859375 203.546875 168.777344 204.042969 169.691406 204.566406 C 170.605469 205.089844 171.507812 205.636719 172.402344 206.207031 C 173.296875 206.777344 174.183594 207.371094 175.058594 207.988281 C 175.9375 208.605469 176.800781 209.246094 177.65625 209.90625 C 178.511719 210.566406 179.351562 211.25 180.183594 211.953125 C 181.015625 212.660156 181.835938 213.382812 182.640625 214.128906 C 183.445312 214.875 184.238281 215.640625 185.015625 216.421875 C 185.792969 217.207031 186.558594 218.011719 187.308594 218.835938 C 188.058594 219.65625 188.789062 220.496094 189.507812 221.355469 C 190.226562 222.210938 190.929688 223.085938 191.613281 223.976562 C 192.296875 224.871094 192.964844 225.777344 193.617188 226.699219 C 194.269531 227.621094 194.902344 228.558594 195.515625 229.511719 C 196.128906 230.460938 196.726562 231.429688 197.304688 232.40625 C 197.882812 233.386719 198.4375 234.375 198.976562 235.378906 C 199.515625 236.382812 200.035156 237.398438 200.53125 238.421875 C 201.03125 239.445312 201.507812 240.480469 201.964844 241.527344 Z M 201.964844 241.527344 " fill-opacity="1" fill-rule="nonzero"/><path fill="#ffffff" d="M 121.328125 203.132812 C 117.40625 208.417969 114.828125 214.589844 113.730469 221 C 112.554688 227.40625 112.679688 233.988281 113.613281 240.421875 C 115.527344 253.308594 120.167969 265.703125 126.082031 277.304688 C 132.039062 288.855469 140.003906 299.484375 149.804688 308.050781 C 154.707031 312.3125 160.164062 316.003906 166.191406 318.472656 C 169.191406 319.730469 172.328125 320.675781 175.550781 321.195312 C 178.773438 321.707031 182.070312 321.816406 185.34375 321.480469 C 178.84375 322.617188 172.050781 321.675781 165.835938 319.386719 C 159.609375 317.042969 153.933594 313.425781 148.8125 309.21875 C 143.667969 305.023438 139.164062 300.101562 135.074219 294.894531 C 131.007812 289.667969 127.378906 284.097656 124.332031 278.203125 C 121.367188 272.28125 118.773438 266.195312 116.652344 259.925781 C 114.550781 253.660156 112.875 247.210938 112.125 240.613281 C 111.355469 234.039062 111.390625 227.308594 112.792969 220.8125 C 114.226562 214.347656 117.054688 208.148438 121.328125 203.132812 Z M 121.328125 203.132812 " fill-opacity="1" fill-rule="nonzero"/><path fill="#ffffff" d="M 165.222656 326.875 C 162.6875 326 158.96875 326.449219 156.269531 325.9375 C 127.027344 320.390625 106.671875 295.121094 100.136719 267.15625 C 96.15625 250.121094 97.40625 231.210938 108.097656 216.765625 C 108.828125 215.78125 109.585938 214.785156 110.453125 213.917969 C 109.160156 215.210938 108.660156 218.914062 108.210938 220.574219 C 106.617188 226.429688 105.777344 232.5 105.628906 238.566406 C 104.886719 269.449219 124.265625 299.96875 147.796875 318.367188 C 147.796875 318.367188 161.15625 326.03125 165.222656 326.875 Z M 165.222656 326.875 " fill-opacity="1" fill-rule="nonzero"/><path fill="#ffffff" d="M 124.65625 230.34375 C 124.707031 228.308594 124.867188 226.269531 125.179688 224.242188 C 125.5 222.222656 126.023438 220.226562 126.722656 218.285156 C 128.113281 214.421875 130.40625 210.734375 133.765625 208.121094 C 137.109375 205.503906 141.40625 204.148438 145.648438 204.136719 C 149.90625 204.117188 154.074219 205.214844 157.910156 206.863281 C 161.761719 208.515625 165.34375 210.710938 168.632812 213.246094 C 171.941406 215.765625 174.980469 218.609375 177.792969 221.648438 C 183.414062 227.742188 188.039062 234.679688 191.828125 242.015625 C 195.566406 249.382812 198.402344 257.230469 199.988281 265.375 C 200.753906 269.449219 201.195312 273.59375 201.203125 277.761719 C 201.207031 279.84375 201.074219 281.929688 200.832031 284.007812 C 200.558594 286.082031 200.140625 288.140625 199.558594 290.164062 C 198.382812 294.1875 196.445312 298.113281 193.441406 301.179688 C 190.464844 304.25 186.414062 306.273438 182.210938 306.757812 C 178.007812 307.265625 173.800781 306.480469 169.960938 305.03125 C 166.089844 303.609375 162.550781 301.472656 159.28125 299.050781 C 162.730469 301.207031 166.371094 303.082031 170.214844 304.285156 C 174.042969 305.503906 178.121094 306.007812 181.996094 305.320312 C 185.875 304.695312 189.445312 302.722656 192.027344 299.839844 C 194.625 296.964844 196.34375 293.34375 197.328125 289.542969 C 199.277344 281.890625 198.808594 273.714844 197.230469 265.917969 C 195.621094 258.089844 192.855469 250.488281 189.183594 243.363281 C 185.558594 236.21875 181.078125 229.480469 175.71875 223.535156 C 170.402344 217.582031 164.140625 212.359375 156.972656 208.972656 C 153.394531 207.296875 149.535156 206.214844 145.636719 206.074219 C 141.742188 205.933594 137.824219 207.011719 134.628906 209.285156 C 131.402344 211.519531 129.007812 214.882812 127.449219 218.574219 C 125.871094 222.273438 125.0625 226.296875 124.65625 230.34375 Z M 124.65625 230.34375 " fill-opacity="1" fill-rule="nonzero"/><path fill="#ffffff" d="M 184.035156 255.699219 C 184.398438 257.492188 184.585938 259.335938 184.507812 261.191406 C 184.4375 263.039062 184.105469 264.921875 183.289062 266.664062 C 182.496094 268.398438 181.039062 269.949219 179.171875 270.6875 C 177.3125 271.476562 175.21875 271.421875 173.351562 270.953125 C 171.464844 270.480469 169.726562 269.625 168.121094 268.609375 C 166.546875 267.554688 165.074219 266.363281 163.726562 265.046875 C 161.039062 262.410156 158.84375 259.335938 156.996094 256.085938 C 155.179688 252.820312 153.761719 249.320312 152.90625 245.664062 C 152.460938 243.839844 152.210938 241.960938 152.109375 240.078125 C 151.988281 238.191406 152.164062 236.269531 152.609375 234.402344 C 153.070312 232.546875 153.878906 230.683594 155.304688 229.277344 C 155.679688 228.949219 156.011719 228.574219 156.457031 228.335938 C 156.878906 228.070312 157.289062 227.792969 157.757812 227.621094 C 158.675781 227.246094 159.65625 227.058594 160.625 227.046875 C 162.574219 227.027344 164.410156 227.652344 166.0625 228.480469 C 167.726562 229.3125 169.214844 230.429688 170.574219 231.65625 C 169.082031 230.59375 167.511719 229.644531 165.84375 228.957031 C 164.183594 228.285156 162.394531 227.855469 160.667969 228.015625 C 159.8125 228.089844 158.976562 228.292969 158.222656 228.660156 C 157.832031 228.828125 157.5 229.089844 157.160156 229.328125 C 156.796875 229.539062 156.539062 229.886719 156.242188 230.171875 C 155.121094 231.417969 154.453125 233.050781 154.117188 234.746094 C 153.457031 238.160156 153.835938 241.785156 154.726562 245.21875 C 155.589844 248.671875 156.960938 252.011719 158.726562 255.125 C 160.460938 258.25 162.554688 261.1875 165.050781 263.722656 C 166.289062 265 167.644531 266.148438 169.082031 267.167969 C 170.546875 268.136719 172.101562 268.972656 173.75 269.464844 C 175.390625 269.957031 177.140625 270.039062 178.707031 269.484375 C 180.292969 268.96875 181.605469 267.746094 182.433594 266.21875 C 183.304688 264.703125 183.777344 262.933594 183.992188 261.148438 C 184.195312 259.355469 184.1875 257.523438 184.035156 255.699219 Z M 184.035156 255.699219 " fill-opacity="1" fill-rule="nonzero"/><path fill="#000000" d="M 163.585938 235.21875 C 165.296875 243.757812 169.261719 252.140625 175.085938 258.496094 L 245.5 227.605469 C 240.714844 220.207031 236.789062 212.042969 234.035156 203.558594 Z M 163.585938 235.21875 " fill-opacity="1" fill-rule="nonzero"/><path stroke-linecap="butt" transform="matrix(0.989968, 0, 0, 0.989561, 0.692982, 37.602423)" fill-opacity="1" fill="#000000" fill-rule="nonzero" stroke-linejoin="miter" d="M 165.605028 207.607678 L 229.957622 177.772806 " stroke="#ffffff" stroke-width="2.179" stroke-opacity="1" stroke-miterlimit="10"/><path stroke-linecap="butt" transform="matrix(0.989968, 0, 0, 0.989561, 0.692982, 37.602423)" fill-opacity="1" fill="#000000" fill-rule="nonzero" stroke-linejoin="miter" d="M 167.976474 212.905164 L 232.940672 183.015028 " stroke="#ffffff" stroke-width="5.448" stroke-opacity="1" stroke-miterlimit="10"/><path fill="#000000" d="M 324.371094 183.179688 C 324.875 184.335938 325.363281 185.496094 325.828125 186.667969 C 326.296875 187.839844 326.742188 189.015625 327.167969 190.195312 C 327.59375 191.378906 328.003906 192.566406 328.386719 193.757812 C 328.773438 194.949219 329.140625 196.144531 329.484375 197.34375 C 329.828125 198.542969 330.152344 199.742188 330.453125 200.945312 C 330.757812 202.148438 331.039062 203.351562 331.296875 204.554688 C 331.554688 205.757812 331.792969 206.957031 332.007812 208.160156 C 332.222656 209.359375 332.417969 210.558594 332.585938 211.757812 C 332.757812 212.953125 332.90625 214.144531 333.035156 215.332031 C 333.160156 216.519531 333.265625 217.703125 333.34375 218.882812 C 333.425781 220.058594 333.484375 221.230469 333.519531 222.394531 C 333.558594 223.558594 333.570312 224.714844 333.5625 225.863281 C 333.550781 227.007812 333.519531 228.148438 333.464844 229.277344 C 333.410156 230.40625 333.335938 231.523438 333.234375 232.628906 C 333.136719 233.738281 333.011719 234.832031 332.867188 235.914062 C 332.722656 236.996094 332.558594 238.066406 332.367188 239.121094 C 332.179688 240.175781 331.96875 241.214844 331.734375 242.242188 C 331.503906 243.265625 331.246094 244.277344 330.972656 245.269531 C 330.695312 246.261719 330.394531 247.238281 330.078125 248.199219 C 329.757812 249.15625 329.417969 250.097656 329.054688 251.019531 C 328.695312 251.941406 328.3125 252.84375 327.910156 253.730469 C 327.503906 254.613281 327.082031 255.472656 326.640625 256.316406 C 326.195312 257.160156 325.734375 257.980469 325.25 258.777344 C 324.769531 259.578125 324.269531 260.351562 323.746094 261.105469 C 323.226562 261.859375 322.6875 262.589844 322.132812 263.296875 C 321.574219 264.003906 321 264.6875 320.40625 265.34375 C 319.816406 266.003906 319.207031 266.636719 318.578125 267.242188 C 317.953125 267.851562 317.308594 268.433594 316.652344 268.988281 C 315.992188 269.546875 315.316406 270.074219 314.628906 270.578125 C 313.9375 271.082031 313.234375 271.558594 312.515625 272.007812 C 311.796875 272.457031 311.0625 272.878906 310.316406 273.273438 C 309.570312 273.664062 308.808594 274.03125 308.039062 274.367188 C 307.265625 274.707031 306.480469 275.015625 305.683594 275.296875 C 304.886719 275.574219 304.082031 275.828125 303.261719 276.050781 C 302.445312 276.273438 301.617188 276.464844 300.777344 276.628906 C 299.941406 276.792969 299.09375 276.929688 298.238281 277.035156 C 297.382812 277.140625 296.519531 277.214844 295.644531 277.261719 C 294.773438 277.308594 293.894531 277.328125 293.007812 277.316406 C 292.125 277.300781 291.234375 277.261719 290.335938 277.1875 C 289.4375 277.117188 288.535156 277.015625 287.628906 276.886719 C 286.722656 276.757812 285.8125 276.597656 284.898438 276.40625 C 283.984375 276.21875 283.066406 276 282.148438 275.753906 C 281.230469 275.507812 280.308594 275.230469 279.386719 274.929688 C 278.464844 274.625 277.542969 274.289062 276.617188 273.929688 C 275.695312 273.570312 274.773438 273.179688 273.851562 272.761719 C 272.933594 272.347656 272.011719 271.902344 271.09375 271.429688 C 270.179688 270.957031 269.261719 270.457031 268.351562 269.933594 C 267.441406 269.40625 266.535156 268.855469 265.628906 268.277344 C 264.726562 267.699219 263.828125 267.097656 262.9375 266.46875 C 262.042969 265.835938 261.15625 265.183594 260.277344 264.503906 C 259.394531 263.828125 258.523438 263.125 257.65625 262.398438 C 256.792969 261.671875 255.933594 260.921875 255.085938 260.148438 C 254.234375 259.375 253.398438 258.582031 252.566406 257.761719 C 251.734375 256.945312 250.917969 256.109375 250.105469 255.246094 C 249.296875 254.386719 248.5 253.507812 247.710938 252.609375 C 246.925781 251.710938 246.152344 250.789062 245.390625 249.851562 C 244.628906 248.914062 243.878906 247.957031 243.144531 246.984375 C 242.40625 246.011719 241.6875 245.019531 240.976562 244.011719 C 240.269531 243.007812 239.578125 241.984375 238.902344 240.945312 C 238.222656 239.90625 237.5625 238.855469 236.914062 237.789062 C 236.269531 236.71875 235.640625 235.640625 235.027344 234.546875 C 234.414062 233.453125 233.820312 232.351562 233.242188 231.234375 C 232.664062 230.117188 232.101562 228.992188 231.558594 227.855469 C 231.015625 226.71875 230.492188 225.570312 229.988281 224.414062 C 229.484375 223.261719 228.996094 222.097656 228.53125 220.929688 C 228.066406 219.757812 227.617188 218.582031 227.191406 217.398438 C 226.765625 216.21875 226.359375 215.03125 225.972656 213.839844 C 225.585938 212.644531 225.21875 211.449219 224.875 210.253906 C 224.53125 209.054688 224.207031 207.851562 223.90625 206.652344 C 223.601562 205.449219 223.324219 204.246094 223.0625 203.042969 C 222.804688 201.839844 222.566406 200.636719 222.351562 199.4375 C 222.136719 198.234375 221.941406 197.035156 221.773438 195.839844 C 221.601562 194.644531 221.453125 193.453125 221.328125 192.265625 C 221.199219 191.074219 221.097656 189.890625 221.015625 188.714844 C 220.933594 187.539062 220.875 186.367188 220.839844 185.203125 C 220.804688 184.039062 220.789062 182.882812 220.796875 181.734375 C 220.808594 180.585938 220.839844 179.449219 220.894531 178.320312 C 220.949219 177.191406 221.027344 176.074219 221.125 174.964844 C 221.222656 173.859375 221.347656 172.765625 221.492188 171.683594 C 221.636719 170.601562 221.800781 169.53125 221.992188 168.476562 C 222.179688 167.421875 222.390625 166.378906 222.625 165.355469 C 222.859375 164.328125 223.113281 163.320312 223.390625 162.328125 C 223.664062 161.332031 223.964844 160.355469 224.285156 159.398438 C 224.601562 158.4375 224.945312 157.496094 225.304688 156.574219 C 225.667969 155.652344 226.050781 154.75 226.453125 153.867188 C 226.855469 152.984375 227.277344 152.121094 227.71875 151.28125 C 228.164062 150.4375 228.625 149.617188 229.109375 148.820312 C 229.589844 148.019531 230.09375 147.242188 230.613281 146.488281 C 231.132812 145.734375 231.671875 145.003906 232.226562 144.300781 C 232.785156 143.59375 233.359375 142.910156 233.953125 142.25 C 234.546875 141.59375 235.15625 140.960938 235.78125 140.351562 C 236.40625 139.746094 237.050781 139.164062 237.710938 138.605469 C 238.367188 138.050781 239.042969 137.519531 239.730469 137.015625 C 240.421875 136.515625 241.125 136.039062 241.847656 135.589844 C 242.566406 135.140625 243.296875 134.71875 244.042969 134.324219 C 244.789062 133.929688 245.550781 133.566406 246.324219 133.226562 C 247.09375 132.890625 247.878906 132.582031 248.675781 132.300781 C 249.472656 132.019531 250.277344 131.769531 251.097656 131.546875 C 251.914062 131.324219 252.742188 131.128906 253.582031 130.964844 C 254.417969 130.800781 255.265625 130.667969 256.121094 130.5625 C 256.976562 130.457031 257.84375 130.378906 258.714844 130.332031 C 259.585938 130.285156 260.464844 130.269531 261.351562 130.28125 C 262.234375 130.292969 263.128906 130.335938 264.023438 130.40625 C 264.921875 130.480469 265.824219 130.578125 266.730469 130.710938 C 267.636719 130.839844 268.546875 131 269.460938 131.1875 C 270.375 131.378906 271.292969 131.59375 272.210938 131.839844 C 273.132812 132.089844 274.050781 132.363281 274.972656 132.667969 C 275.894531 132.972656 276.820312 133.304688 277.742188 133.667969 C 278.664062 134.027344 279.585938 134.417969 280.507812 134.832031 C 281.429688 135.25 282.347656 135.695312 283.265625 136.167969 C 284.183594 136.640625 285.097656 137.136719 286.007812 137.664062 C 286.917969 138.1875 287.828125 138.742188 288.730469 139.320312 C 289.632812 139.898438 290.53125 140.5 291.425781 141.128906 C 292.316406 141.757812 293.203125 142.414062 294.082031 143.089844 C 294.964844 143.769531 295.835938 144.472656 296.703125 145.199219 C 297.570312 145.925781 298.425781 146.675781 299.273438 147.449219 C 300.125 148.222656 300.964844 149.015625 301.792969 149.832031 C 302.625 150.652344 303.445312 151.488281 304.253906 152.347656 C 305.0625 153.207031 305.859375 154.085938 306.648438 154.988281 C 307.433594 155.886719 308.207031 156.804688 308.96875 157.742188 C 309.734375 158.683594 310.480469 159.636719 311.21875 160.609375 C 311.953125 161.585938 312.675781 162.574219 313.382812 163.582031 C 314.089844 164.589844 314.78125 165.613281 315.460938 166.652344 C 316.136719 167.691406 316.796875 168.742188 317.445312 169.808594 C 318.089844 170.875 318.71875 171.957031 319.332031 173.046875 C 319.945312 174.140625 320.542969 175.246094 321.121094 176.363281 C 321.699219 177.480469 322.257812 178.605469 322.800781 179.742188 C 323.34375 180.878906 323.867188 182.027344 324.371094 183.179688 Z M 324.371094 183.179688 " fill-opacity="1" fill-rule="nonzero"/><path stroke-linecap="butt" transform="matrix(0.989968, 0, 0, 0.989561, 0.692982, 37.602423)" fill="none" stroke-linejoin="miter" d="M 226.118326 173.320076 L 167.234657 200.340411 C 165.522165 201.125955 164.634353 203.032576 165.151257 204.840511 C 166.319224 208.922181 168.674886 215.948652 171.949928 219.726367 C 173.02714 220.965868 174.822494 221.293507 176.317965 220.62244 L 234.337497 194.577126 " stroke="#ffffff" stroke-width="1" stroke-opacity="1" stroke-miterlimit="10"/><path fill="#ffffff" d="M 253.730469 140.46875 C 249.585938 145.324219 246.675781 151.128906 245.175781 157.257812 C 243.601562 163.378906 243.261719 169.757812 243.710938 176.050781 C 244.648438 188.65625 248.246094 200.984375 253.132812 212.636719 C 258.058594 224.246094 264.988281 235.113281 273.839844 244.121094 C 278.269531 248.605469 283.285156 252.574219 288.9375 255.398438 C 291.746094 256.832031 294.71875 257.96875 297.800781 258.699219 C 300.882812 259.425781 304.066406 259.757812 307.253906 259.65625 C 300.886719 260.316406 294.375 258.921875 288.523438 256.257812 C 282.671875 253.539062 277.441406 249.625 272.796875 245.183594 C 268.128906 240.742188 264.128906 235.652344 260.554688 230.316406 C 257 224.960938 253.894531 219.304688 251.375 213.382812 C 248.9375 207.4375 246.867188 201.363281 245.261719 195.140625 C 243.675781 188.925781 242.515625 182.566406 242.257812 176.132812 C 241.980469 169.714844 242.484375 163.207031 244.285156 157.015625 C 246.109375 150.855469 249.261719 145.042969 253.730469 140.46875 Z M 253.730469 140.46875 " fill-opacity="1" fill-rule="nonzero"/><path fill="#ffffff" d="M 287.480469 263.511719 C 285.101562 262.488281 281.484375 262.671875 278.914062 261.992188 C 251.109375 254.617188 233.230469 228.710938 228.863281 201.132812 C 226.207031 184.335938 228.722656 166.074219 240.03125 152.789062 C 240.800781 151.882812 241.601562 150.96875 242.496094 150.1875 C 241.160156 151.351562 240.421875 154.910156 239.875 156.492188 C 237.933594 162.066406 236.703125 167.894531 236.140625 173.769531 C 233.285156 203.679688 249.859375 234.609375 271.269531 254.070312 C 271.269531 254.070312 283.621094 262.417969 287.480469 263.511719 Z M 287.480469 263.511719 " fill-opacity="1" fill-rule="nonzero"/><path fill="#ffffff" d="M 297.894531 234.242188 C 296.320312 233.566406 293.929688 233.6875 292.234375 233.238281 C 273.863281 228.363281 262.050781 211.25 259.164062 193.027344 C 257.410156 181.929688 259.070312 169.863281 266.542969 161.085938 C 267.054688 160.488281 267.582031 159.882812 268.171875 159.367188 C 267.289062 160.136719 266.804688 162.488281 266.441406 163.53125 C 265.15625 167.214844 264.34375 171.066406 263.972656 174.949219 C 262.085938 194.710938 273.035156 215.148438 287.183594 228.003906 C 287.183594 228.003906 295.34375 233.519531 297.894531 234.242188 Z M 297.894531 234.242188 " fill-opacity="1" fill-rule="nonzero"/><path fill="#ffffff" d="M 255.054688 167.089844 C 255.242188 165.125 255.535156 163.164062 255.972656 161.226562 C 256.421875 159.292969 257.058594 157.398438 257.863281 155.566406 C 259.464844 151.917969 261.914062 148.5 265.335938 146.179688 C 268.734375 143.859375 272.984375 142.824219 277.09375 143.105469 C 281.21875 143.371094 285.171875 144.730469 288.765625 146.597656 C 292.371094 148.472656 295.679688 150.855469 298.675781 153.546875 C 301.695312 156.222656 304.425781 159.195312 306.925781 162.335938 C 311.925781 168.636719 315.890625 175.683594 319.03125 183.050781 C 322.117188 190.441406 324.300781 198.234375 325.261719 206.222656 C 325.71875 210.214844 325.855469 214.253906 325.578125 218.285156 C 325.433594 220.300781 325.171875 222.308594 324.796875 224.300781 C 324.386719 226.289062 323.851562 228.253906 323.15625 230.171875 C 321.75 233.984375 319.632812 237.660156 316.539062 240.445312 C 313.472656 243.242188 309.421875 244.941406 305.324219 245.144531 C 301.21875 245.371094 297.203125 244.324219 293.585938 242.652344 C 289.9375 241.003906 286.667969 238.6875 283.679688 236.113281 C 286.863281 238.445312 290.25 240.515625 293.886719 241.949219 C 297.503906 243.390625 301.417969 244.160156 305.207031 243.738281 C 308.996094 243.382812 312.582031 241.703125 315.253906 239.0625 C 317.945312 236.4375 319.828125 233.039062 321.035156 229.425781 C 323.425781 222.144531 323.535156 214.207031 322.554688 206.554688 C 321.546875 198.867188 319.414062 191.316406 316.375 184.160156 C 313.378906 176.988281 309.535156 170.148438 304.785156 164.011719 C 300.074219 157.871094 294.398438 152.359375 287.707031 148.570312 C 284.367188 146.699219 280.710938 145.375 276.949219 144.976562 C 273.191406 144.570312 269.328125 145.363281 266.09375 147.359375 C 262.828125 149.316406 260.300781 152.425781 258.546875 155.890625 C 256.78125 159.367188 255.726562 163.203125 255.054688 167.089844 Z M 255.054688 167.089844 " fill-opacity="1" fill-rule="nonzero"/><path fill="#ffffff" d="M 310.546875 195.742188 C 310.773438 197.503906 310.828125 199.300781 310.625 201.089844 C 310.433594 202.871094 309.984375 204.671875 309.085938 206.304688 C 308.203125 207.929688 306.707031 209.347656 304.847656 209.945312 C 302.996094 210.589844 300.96875 210.394531 299.195312 209.8125 C 297.402344 209.222656 295.78125 208.273438 294.300781 207.171875 C 292.851562 206.039062 291.515625 204.777344 290.304688 203.410156 C 287.898438 200.664062 285.992188 197.53125 284.441406 194.257812 C 282.917969 190.96875 281.796875 187.484375 281.222656 183.882812 C 280.921875 182.089844 280.8125 180.257812 280.84375 178.425781 C 280.859375 176.59375 281.152344 174.746094 281.707031 172.96875 C 282.273438 171.207031 283.171875 169.453125 284.636719 168.179688 C 285.363281 167.542969 286.210938 167.050781 287.117188 166.726562 C 288.027344 166.417969 288.992188 166.296875 289.929688 166.347656 C 291.816406 166.457031 293.550781 167.1875 295.09375 168.105469 C 296.648438 169.027344 298.003906 170.214844 299.230469 171.496094 C 297.863281 170.367188 296.414062 169.332031 294.847656 168.550781 C 293.289062 167.785156 291.589844 167.242188 289.910156 167.289062 C 289.074219 167.304688 288.253906 167.453125 287.5 167.757812 C 286.75 168.082031 286.066406 168.535156 285.488281 169.101562 C 284.328125 170.242188 283.582031 171.78125 283.144531 173.398438 C 282.28125 176.664062 282.394531 180.199219 283.015625 183.582031 C 283.609375 186.988281 284.695312 190.316406 286.179688 193.453125 C 287.632812 196.601562 289.449219 199.59375 291.679688 202.226562 C 292.789062 203.550781 294.015625 204.757812 295.332031 205.851562 C 296.679688 206.890625 298.121094 207.8125 299.679688 208.398438 C 301.234375 208.988281 302.917969 209.1875 304.46875 208.75 C 306.039062 208.351562 307.382812 207.242188 308.285156 205.820312 C 309.21875 204.40625 309.800781 202.730469 310.125 201.011719 C 310.445312 199.289062 310.566406 197.519531 310.546875 195.742188 Z M 310.546875 195.742188 " fill-opacity="1" fill-rule="nonzero"/><path fill="#000000" d="M 291.863281 173.527344 C 293.574219 182.066406 297.539062 190.445312 303.363281 196.800781 L 373.777344 165.914062 C 375 154.996094 370.941406 145.34375 362.3125 141.863281 Z M 291.863281 173.527344 " fill-opacity="1" fill-rule="nonzero"/><path stroke-linecap="butt" transform="matrix(0.989968, 0, 0, 0.989561, 0.692982, 37.602423)" fill-opacity="1" fill="#000000" fill-rule="nonzero" stroke-linejoin="miter" d="M 295.186191 145.261559 L 370.125455 111.183173 " stroke="#ffffff" stroke-width="2.179" stroke-opacity="1" stroke-miterlimit="10"/><path stroke-linecap="butt" transform="matrix(0.989968, 0, 0, 0.989561, 0.692982, 37.602423)" fill-opacity="1" fill="#000000" fill-rule="nonzero" stroke-linejoin="miter" d="M 297.553691 150.562993 L 373.487305 116.82014 " stroke="#ffffff" stroke-width="5.448" stroke-opacity="1" stroke-miterlimit="10"/><path stroke-linecap="butt" transform="matrix(0.989968, 0, 0, 0.989561, 0.692982, 37.602423)" fill="none" stroke-linejoin="miter" d="M 363.914714 132.234955 L 305.895182 158.276322 C 304.399711 158.951337 302.604357 158.623698 301.527145 157.380249 C 298.252103 153.602534 295.896441 146.576062 294.728474 142.494393 C 294.21157 140.686458 295.103328 138.779837 296.811874 137.994293 L 364.972197 107.018607 C 364.972197 107.018607 376.419059 112.454254 374.513222 127.162474 Z M 363.914714 132.234955 " stroke="#ffffff" stroke-width="1" stroke-opacity="1" stroke-miterlimit="10"/><path fill="#000000" d="M 206.273438 134.835938 C 206.261719 134.570312 206.261719 134.429688 206.261719 134.429688 C 206.351562 134.628906 206.351562 134.765625 206.273438 134.835938 Z M 206.273438 134.835938 " fill-opacity="1" fill-rule="nonzero"/><path fill="#ffffff" d="M 215.648438 140.328125 C 212.417969 146.789062 208.847656 150.921875 205.554688 160.464844 C 200.042969 176.441406 198.484375 193.148438 196.878906 209.972656 C 200.367188 207.375 204.390625 205.492188 208.625 204.484375 C 207.921875 194.292969 207.28125 184.074219 207.707031 173.867188 C 208.128906 163.660156 212.171875 149.933594 215.648438 140.328125 " fill-opacity="1" fill-rule="nonzero"/><path fill="#ffffff" d="M 179.128906 187.550781 C 172.871094 176.730469 160.546875 169.695312 148.042969 169.8125 C 149.449219 171.214844 150.375 172.226562 151.78125 173.628906 C 153.691406 175.539062 155.648438 177.480469 158.054688 178.703125 C 159.777344 179.582031 161.664062 180.058594 163.539062 180.53125 C 166.03125 181.160156 168.527344 181.789062 171.023438 182.417969 C 173.957031 183.15625 177.554688 185.804688 179.128906 187.550781 Z M 179.128906 187.550781 " fill-opacity="1" fill-rule="nonzero"/></svg>